<?xml version="1.0" encoding="utf-8"?>
<!-- Generator: Adobe Illustrator 25.3.1, SVG Export Plug-In . SVG Version: 6.00 Build 0)  -->
<svg version="1.1" id="Layer_1" xmlns="http://www.w3.org/2000/svg" xmlns:xlink="http://www.w3.org/1999/xlink" x="0px" y="0px"
	 viewBox="0 0 154.4 117.3" style="enable-background:new 0 0 154.4 117.3;" xml:space="preserve">
<style type="text/css">
	.st0{fill:#5B36A0;}
	.st1{fill:#6862E6;}
	.st2{opacity:0.25;fill:url(#SVGID_1_);enable-background:new    ;}
	.st3{opacity:0.25;fill:url(#SVGID_2_);enable-background:new    ;}
	.st4{opacity:0.46;fill:url(#SVGID_3_);enable-background:new    ;}
	.st5{fill:#68E1FD;}
	.st6{fill:#974C26;}
	.st7{fill:#999A1C;}
	.st8{fill:#A1482D;}
	.st9{fill:#F47B56;}
	.st10{fill:#FFFFFF;}
	.st11{fill:#AB643C;}
	.st12{opacity:0.32;fill:url(#SVGID_4_);enable-background:new    ;}
	.st13{fill:#E2AC00;}
	.st14{fill:#F2F2F2;}
	.st15{fill:#FF8F6F;}
	.st16{fill:#003B94;}
	.st17{fill:#3E2928;}
	.st18{fill:#FFB5A9;}
	.st19{fill:#007F68;}
	.st20{opacity:0.25;fill:url(#SVGID_5_);enable-background:new    ;}
	.st21{fill:#FF9271;}
	.st22{fill:#DF5C34;}
</style>
<path class="st0" d="M74.5,116.1L2.2,73.4c-2.3-1.3-4.3-3.4-2-4.8l72.5-41.8c1.1-0.7,2.7-1.1,3.8-0.5l75.9,44
	c2.3,1.3,2.7,5.1,0.4,6.4L84,116c-1.4,0.8-3.1,1.3-4.8,1.3C77.6,117.3,76,116.9,74.5,116.1L74.5,116.1z"/>
<path class="st1" d="M74.5,114.1L2.2,71.4c-2.3-1.3-4.3-3.4-2-4.8l72.5-41.8c1.1-0.7,2.7-1.1,3.8-0.5l75.9,44
	c2.3,1.3,2.7,5.1,0.4,6.4L84,114.1c-1.4,0.8-3.1,1.3-4.8,1.3C77.6,115.4,76,115,74.5,114.1L74.5,114.1z"/>
<linearGradient id="SVGID_1_" gradientUnits="userSpaceOnUse" x1="85.6571" y1="132.8647" x2="81.0741" y2="126.6549" gradientTransform="matrix(1 0 0 -1 0 198)">
	<stop  offset="0" style="stop-color:#78B46A"/>
	<stop  offset="3.000000e-02" style="stop-color:#7F3500"/>
	<stop  offset="1" style="stop-color:#FFFFFF"/>
</linearGradient>
<path class="st2" d="M80.5,57.8l-14.3,8.1c0,0,22,13.4,26.5,15.3l8.2-11.8"/>
<linearGradient id="SVGID_2_" gradientUnits="userSpaceOnUse" x1="67.087" y1="107.5459" x2="57.4682" y2="97.0014" gradientTransform="matrix(1 0 0 -1 0 198)">
	<stop  offset="0" style="stop-color:#78B46A"/>
	<stop  offset="3.000000e-02" style="stop-color:#7F3500"/>
	<stop  offset="1" style="stop-color:#FFFFFF"/>
</linearGradient>
<path class="st3" d="M75.5,96.8l-14.3-8.1L47,96.8c0,0,7.4,4.5,14.5,8.7C66,102.4,70.6,99.1,75.5,96.8L75.5,96.8z"/>
<linearGradient id="SVGID_3_" gradientUnits="userSpaceOnUse" x1="47.7234" y1="150.3867" x2="40.5148" y2="142.4827" gradientTransform="matrix(1 0 0 -1 0 198)">
	<stop  offset="0" style="stop-color:#78B46A"/>
	<stop  offset="3.000000e-02" style="stop-color:#7F3500"/>
	<stop  offset="1" style="stop-color:#FFFFFF"/>
</linearGradient>
<path class="st4" d="M44.8,46.7l-9,5.2c0,0,0.8,4.7,5.3,6.6l11.8-7.6"/>
<path class="st5" d="M49.2,51.9c3,0,5.5-1.7,5.5-3.8c0-2.1-2.4-3.8-5.5-3.8s-5.5,1.7-5.5,3.8C43.8,50.1,46.2,51.9,49.2,51.9z"/>
<path class="st6" d="M49.2,47.4c2.3,0,4.1-0.7,4.1-1.7c0-0.9-1.8-1.7-4.1-1.7s-4.1,0.7-4.1,1.7C45.1,46.7,47,47.4,49.2,47.4z"/>
<path class="st7" d="M49.1,43c0-0.8,0-1.5-0.1-2.3c0-0.2,0-0.4-0.1-0.6l0-0.4c0-0.1-0.1-0.4-0.1-0.4c0-0.2-0.1-0.3-0.1-0.5
	c-0.4-2.6-1.4-5-2.9-7.1c-0.6,1.3-0.8,2.7-0.8,4.2c0,0.4,0,0.8,0.1,1.2v0.2c0.2,1,0.4,1.9,0.8,2.9c0.2,0.7,0.5,1.3,0.9,2
	c0.4,0.7,0.8,1.4,1.2,2.1c0.3,0.5,0.7,1,1,1.5C49,44.8,49.1,43.9,49.1,43L49.1,43z M46.9,34.5c0-0.1,0-0.2,0-0.3
	c0.1,0.1,0.2,0.2,0.3,0.3C47.1,34.5,47,34.5,46.9,34.5L46.9,34.5z"/>
<path class="st7" d="M50.5,43.5c0.4-0.6,0.8-1.3,1.2-2c0.1-0.2,0.2-0.3,0.3-0.5l0.2-0.3l0.2-0.4l0.2-0.4c1-2.4,1.5-5,1.4-7.6
	c-1.2,0.8-2.2,1.9-3,3.1c-0.2,0.4-0.4,0.7-0.6,1.1l-0.1,0.2l0,0.1c-0.1,0.2-0.2,0.4-0.2,0.6c-0.3,0.7-0.5,1.5-0.7,2.3
	c-0.2,0.7-0.3,1.4-0.3,2.1c-0.1,0.8-0.1,1.6-0.1,2.4c0,0.6,0,1.2,0,1.8C49.4,45.1,50,44.3,50.5,43.5L50.5,43.5z M53.3,35.2
	c0.1-0.1,0.1-0.2,0.1-0.3c0,0.1,0.1,0.3,0.1,0.4C53.4,35.3,53.3,35.3,53.3,35.2L53.3,35.2z"/>
<path class="st7" d="M50.4,45.4c0.4-0.2,0.8-0.4,1.3-0.7l0.3-0.2l0.2-0.1l0.2-0.1l0.2-0.2c1.3-1,2.4-2.2,3.2-3.6
	c-0.9,0.1-1.8,0.3-2.6,0.7c-0.2,0.1-0.5,0.2-0.7,0.4l-0.1,0.1l0,0l-0.3,0.2c-0.4,0.3-0.8,0.6-1.1,1c-0.3,0.3-0.6,0.7-0.9,1
	c-0.3,0.4-0.6,0.8-0.8,1.3c-0.2,0.3-0.4,0.7-0.5,1C49.4,45.9,49.9,45.7,50.4,45.4L50.4,45.4z M54.6,41.8c0.1,0,0.1-0.1,0.2-0.1
	c0,0.1-0.1,0.2-0.1,0.3C54.7,41.9,54.7,41.9,54.6,41.8L54.6,41.8L54.6,41.8z M49.1,43c0-0.8,0-1.5-0.1-2.3c0-0.2,0-0.4-0.1-0.6
	l0-0.4c0-0.1-0.1-0.4-0.1-0.4c0-0.2-0.1-0.3-0.1-0.5c-0.4-2.6-1.4-5-2.9-7.1c-0.6,1.3-0.8,2.7-0.8,4.2c0,0.4,0,0.8,0.1,1.2v0.2
	c0.2,1,0.4,1.9,0.8,2.9c0.2,0.7,0.5,1.3,0.9,2c0.4,0.7,0.8,1.4,1.2,2.1c0.3,0.5,0.7,1,1,1.5C49,44.8,49.1,43.9,49.1,43L49.1,43z
	 M46.9,34.5c0-0.1,0-0.2,0-0.3c0.1,0.1,0.2,0.2,0.3,0.3C47.1,34.5,47,34.5,46.9,34.5L46.9,34.5z"/>
<path class="st7" d="M50.5,43.5c0.4-0.6,0.8-1.3,1.2-2c0.1-0.2,0.2-0.3,0.3-0.5l0.2-0.3l0.2-0.4l0.2-0.4c1-2.4,1.5-5,1.4-7.6
	c-1.2,0.8-2.2,1.9-3,3.1c-0.2,0.4-0.4,0.7-0.6,1.1l-0.1,0.2l0,0.1c-0.1,0.2-0.2,0.4-0.2,0.6c-0.3,0.7-0.5,1.5-0.7,2.3
	c-0.2,0.7-0.3,1.4-0.3,2.1c-0.1,0.8-0.1,1.6-0.1,2.4c0,0.6,0,1.2,0,1.8C49.4,45.1,50,44.3,50.5,43.5L50.5,43.5z M53.3,35.2
	c0.1-0.1,0.1-0.2,0.1-0.3c0,0.1,0.1,0.3,0.1,0.4C53.4,35.3,53.3,35.3,53.3,35.2L53.3,35.2z"/>
<path class="st7" d="M50.4,45.4c0.4-0.2,0.8-0.4,1.3-0.7l0.3-0.2l0.2-0.1l0.2-0.1l0.2-0.2c1.3-1,2.4-2.2,3.2-3.6
	c-0.9,0.1-1.8,0.3-2.6,0.7c-0.2,0.1-0.5,0.2-0.7,0.4l-0.1,0.1l0,0l-0.3,0.2c-0.4,0.3-0.8,0.6-1.1,1c-0.3,0.3-0.6,0.7-0.9,1
	c-0.3,0.4-0.6,0.8-0.8,1.3c-0.2,0.3-0.4,0.7-0.5,1C49.4,45.9,49.9,45.7,50.4,45.4L50.4,45.4z M54.6,41.8c0.1,0,0.1-0.1,0.2-0.1
	c0,0.1-0.1,0.2-0.1,0.3C54.7,41.9,54.7,41.9,54.6,41.8L54.6,41.8L54.6,41.8z"/>
<path class="st8" d="M86.1,54.6l-7.9,3.8c-0.3,0.1-0.5,0.4-0.7,0.6c-0.2,0.3-0.3,0.6-0.3,0.9c0,0.3,0.1,0.7,0.2,0.9
	c0.2,0.3,0.4,0.5,0.7,0.7l18.7,10.9c0.4,0.2,0.9,0.3,1.3,0.2c0.5-0.1,0.9-0.4,1.1-0.8l4.5-7.1"/>
<path class="st9" d="M129.1,36.3L66.1,0.1c-0.4-0.2-0.9-0.4-1.4-0.4c-0.5,0-1,0.1-1.4,0.4c-0.4,0.2-0.8,0.6-1,1S61.9,2,61.9,2.5
	v37.7c0,0.8,0.4,1.6,1.2,2L130.1,81c0.2,0.1,0.5,0.2,0.8,0.2c0.3,0,0.5-0.1,0.8-0.2c0.2-0.1,0.4-0.3,0.6-0.6
	c0.1-0.2,0.2-0.5,0.2-0.8V42.1c0-1.2-0.3-2.3-0.9-3.4C130.9,37.8,130.1,36.9,129.1,36.3L129.1,36.3z"/>
<path class="st10" d="M66.1,2.9l61,35.1c0.7,0.4,1.2,0.9,1.6,1.6c0.4,0.7,0.6,1.4,0.6,2.1V70c0,0.3-0.1,0.5-0.2,0.8
	c-0.1,0.2-0.3,0.4-0.6,0.6c-0.2,0.1-0.5,0.2-0.8,0.2c-0.3,0-0.5-0.1-0.8-0.2L64.7,35.7c-0.2-0.1-0.4-0.3-0.6-0.6
	C64,34.9,64,34.6,64,34.3V4.2c0-0.3,0.1-0.5,0.2-0.7c0.1-0.2,0.3-0.4,0.5-0.5c0.2-0.1,0.5-0.2,0.7-0.2C65.7,2.7,65.9,2.8,66.1,2.9
	L66.1,2.9z"/>
<path class="st11" d="M91.8,56.3c0.7-0.1,1.2-0.9,1-1.7c-0.2-0.8-0.9-1.4-1.6-1.2c-0.7,0.1-1.2,0.9-1,1.7
	C90.4,55.8,91.1,56.4,91.8,56.3z"/>
<linearGradient id="SVGID_4_" gradientUnits="userSpaceOnUse" x1="114.0262" y1="144.7519" x2="109.7026" y2="147.9039" gradientTransform="matrix(1 0 0 -1 0 198)">
	<stop  offset="0" style="stop-color:#FFFFFF;stop-opacity:0"/>
	<stop  offset="0.99" style="stop-color:#DC841E"/>
</linearGradient>
<path class="st12" d="M82.5,41.3l28.4,17l14-8.1l-25-14.6"/>
<path class="st13" d="M117.6,37.9L86.9,19.2c-0.2-0.1-0.4-0.1-0.5-0.1c-0.2,0-0.4,0.1-0.5,0.2c-0.2,0.1-0.3,0.2-0.4,0.4
	c-0.1,0.2-0.1,0.4-0.1,0.5v10.7c0,0.2,0,0.4,0.1,0.6c0.1,0.2,0.2,0.3,0.4,0.4l30.7,18.3c0.2,0.1,0.3,0.1,0.5,0.1
	c0.2,0,0.4-0.1,0.5-0.1c0.2-0.1,0.3-0.2,0.4-0.4c0.1-0.2,0.1-0.3,0.1-0.5l0.2-9.9c0-0.3,0-0.5-0.2-0.7C118,38.2,117.8,38,117.6,37.9
	L117.6,37.9z"/>
<path class="st10" d="M110.2,43.4c1.1,1.5,3,2,4.3,1c1.3-1,1.4-3.1,0.3-4.6c-1.1-1.5-3-2-4.3-1C109.3,39.8,109.1,41.8,110.2,43.4
	L110.2,43.4z"/>
<path class="st14" d="M107.2,36l-12.5-7.5c-0.1,0-0.2-0.1-0.3,0c-0.1,0-0.2,0.1-0.3,0.2c-0.1,0.1-0.1,0.2-0.1,0.3
	c0,0.1,0.1,0.2,0.2,0.3l12.5,7.5c0.1,0,0.2,0.1,0.3,0c0.1,0,0.2-0.1,0.3-0.2c0.1-0.1,0.1-0.2,0.1-0.3
	C107.4,36.2,107.3,36.1,107.2,36L107.2,36z M106.7,39L89.5,28.7c-0.1,0-0.2,0-0.3,0c-0.1,0-0.2,0.1-0.2,0.2
	c-0.1,0.1-0.1,0.2-0.1,0.3c0,0.1,0.1,0.2,0.2,0.3l17.2,10.4c0.1,0,0.2,0.1,0.3,0c0.1,0,0.2-0.1,0.3-0.2c0.1-0.1,0.1-0.2,0.1-0.3
	C106.9,39.2,106.8,39.1,106.7,39L106.7,39z"/>
<path class="st9" d="M111.5,40L80.8,21.3c-0.2-0.1-0.4-0.1-0.5-0.1c-0.2,0-0.4,0.1-0.5,0.2c-0.2,0.1-0.3,0.2-0.4,0.4
	c-0.1,0.2-0.1,0.4-0.1,0.5v10.6c0,0.4,0.2,0.8,0.5,1l30.7,18.3c0.2,0.1,0.3,0.1,0.5,0.1c0.2,0,0.4-0.1,0.5-0.1
	c0.2-0.1,0.3-0.2,0.4-0.4c0.1-0.2,0.1-0.3,0.1-0.5l0.2-9.9c0-0.3-0.1-0.5-0.2-0.7C111.9,40.3,111.7,40.1,111.5,40z"/>
<path class="st10" d="M104.1,45.4c1.1,1.5,3,2,4.3,1c1.3-1,1.4-3.1,0.3-4.6c-1.1-1.5-3-2-4.3-1C103.2,41.8,103,43.9,104.1,45.4z"/>
<path class="st14" d="M101.1,38.1l-12.5-7.5c-0.1,0-0.2-0.1-0.3,0c-0.1,0-0.2,0.1-0.3,0.2c-0.1,0.1-0.1,0.2-0.1,0.3
	c0,0.1,0.1,0.2,0.2,0.3l12.5,7.5c0.1,0,0.2,0.1,0.3,0c0.1,0,0.2-0.1,0.3-0.2c0.1-0.1,0.1-0.2,0.1-0.3
	C101.3,38.2,101.2,38.1,101.1,38.1L101.1,38.1L101.1,38.1z M100.6,41.1L83.4,30.7c-0.1,0-0.2-0.1-0.3,0c-0.1,0-0.2,0.1-0.3,0.2
	c-0.1,0.1-0.1,0.2-0.1,0.3c0,0.1,0.1,0.2,0.2,0.3l17.2,10.4c0.1,0,0.2,0.1,0.3,0c0.1,0,0.2-0.1,0.3-0.2c0.1-0.1,0.1-0.2,0.1-0.3
	C100.8,41.3,100.7,41.2,100.6,41.1L100.6,41.1z"/>
<path class="st5" d="M103.8,41.2L73.1,22.5c-0.2-0.1-0.4-0.1-0.5-0.1c-0.2,0-0.4,0.1-0.5,0.2c-0.2,0.1-0.3,0.2-0.4,0.4
	c-0.1,0.2-0.1,0.4-0.1,0.5v10.6c0,0.2,0,0.4,0.1,0.6c0.1,0.2,0.2,0.3,0.4,0.4l30.7,18.3c0.2,0.1,0.3,0.1,0.5,0.1
	c0.2,0,0.4-0.1,0.5-0.1c0.2-0.1,0.3-0.2,0.4-0.4c0.1-0.2,0.1-0.3,0.1-0.5l0.2-9.9C104.5,42,104.2,41.5,103.8,41.2L103.8,41.2z"/>
<path class="st5" d="M103.8,41.2L73.1,22.5c-0.2-0.1-0.4-0.1-0.5-0.1c-0.2,0-0.4,0.1-0.5,0.2c-0.2,0.1-0.3,0.2-0.4,0.4
	c-0.1,0.2-0.1,0.4-0.1,0.5v10.6c0,0.2,0,0.4,0.1,0.6c0.1,0.2,0.2,0.3,0.4,0.4l30.7,18.3c0.2,0.1,0.3,0.1,0.5,0.1
	c0.2,0,0.4-0.1,0.5-0.1c0.2-0.1,0.3-0.2,0.4-0.4c0.1-0.2,0.1-0.3,0.1-0.5l0.2-9.9C104.5,42,104.2,41.5,103.8,41.2L103.8,41.2z"/>
<path class="st10" d="M96.4,46.7c1.1,1.5,3,2,4.3,1c1.3-1,1.4-3.1,0.3-4.6c-1.1-1.5-3-2-4.3-1C95.5,43.1,95.3,45.2,96.4,46.7
	L96.4,46.7z"/>
<path class="st14" d="M93.4,39.3l-12.5-7.5c-0.1-0.1-0.2-0.1-0.3,0c-0.1,0-0.2,0.1-0.3,0.2c-0.1,0.1-0.1,0.2-0.1,0.3
	c0,0.1,0.1,0.2,0.2,0.3l12.5,7.5c0.1,0.1,0.2,0.1,0.3,0c0.1,0,0.2-0.1,0.3-0.2c0.1-0.1,0.1-0.2,0.1-0.3
	C93.6,39.5,93.5,39.4,93.4,39.3L93.4,39.3L93.4,39.3z M92.9,42.4L75.7,32c-0.1,0-0.2-0.1-0.3,0c-0.1,0-0.2,0.1-0.3,0.2
	C75,32.3,75,32.4,75,32.5c0,0.1,0.1,0.2,0.2,0.3l17.2,10.4c0.1,0.1,0.2,0.1,0.3,0c0.1,0,0.2-0.1,0.3-0.2c0.1-0.1,0.1-0.2,0.1-0.3
	C93.1,42.5,93,42.4,92.9,42.4z"/>
<path class="st15" d="M63.5,40.2c-2,1.7-3.5,3.9-4.3,6.4c-1.5,4.2,2.3,11.1,2.3,11.1l5.9-4.7"/>
<path class="st16" d="M62.9,95.9L61.3,95l0.4-2.3c0,0,2.4,0.2,2.6,1.1"/>
<path class="st9" d="M63.5,95.8c0.4-0.2,0.7-0.4,1.1-0.6c0.9-0.5,2.3-1,2.8-2c0.1-0.2,0.2-0.4,0.2-0.6c0-0.2-0.1-0.4-0.2-0.6
	c-0.8-1-2.7,0.7-3.6-0.5c-0.2-0.2-0.3-3.8-0.3-3.8l-3.6,1c0,0-0.6,7.1-0.5,7.6c0.1,0.4,1.3,0.8,1.3,0.8c0.4-0.1,0.7-0.2,1-0.4
	c0.4-0.3,0-3.6,0.5-3.1c0.5,0.5,0.7,2.3,0.7,2.3C63.1,95.9,63.3,95.9,63.5,95.8L63.5,95.8z"/>
<path class="st16" d="M69.7,99.3l-1.6-0.9l0.4-2.3c0,0,2.4,0.2,2.6,1.1"/>
<path class="st9" d="M70.4,99.3c0.4-0.2,0.7-0.4,1.1-0.6c0.9-0.5,2.3-1,2.8-2c0.1-0.2,0.2-0.4,0.2-0.6c0-0.2-0.1-0.4-0.2-0.6
	c-0.8-1-2.7,0.7-3.6-0.5c-0.2-0.2-0.3-3.8-0.3-3.8l-3.6,1c0,0-0.6,7.1-0.5,7.6c0.1,0.4,1.3,0.8,1.3,0.8c0.4-0.1,0.7-0.2,1-0.4
	c0.4-0.3,0-3.6,0.5-3.1c0.5,0.5,0.7,2.3,0.7,2.3C69.9,99.3,70.1,99.3,70.4,99.3z"/>
<path class="st17" d="M58,76.2L57,90.3c0,0,1.7,2.3,7.3,1l0.1-9.5L58,76.2z M64.6,79c-0.1,1.2,0,14.6,0,14.6s1.6,2.9,8.4,0
	l-0.1-11.4"/>
<path class="st17" d="M57.5,80.8c0.5,0.3,0.6-1.3,1.1-1c1.8,1,3.6,1.8,5.6,2.5h0c0,0,0.1,0,0.1,0c0.1,0,0.1,0,0.2,0
	c0,0,0.1,0,0.1,0.1c0,0,0.1,0.1,0.1,0.1c1.2,0.4,2.4,0.6,3.7,0.8c1.6,0.3,2.9-0.9,4.5-1c0-6.2,0-24-2.6-27.8l-7.9-2.6
	c0,0.6-3.8,5-3.7,10.4c0.1,6-0.7,11.7-0.8,13.6C57.9,76.1,57.5,80.5,57.5,80.8L57.5,80.8z"/>
<path class="st15" d="M71.1,47.3l-0.7,7.2c0,0-5.9,0.2-8.4-1.5v-6.1"/>
<path class="st18" d="M78.5,42.6l-0.6,0.8c0.3-0.7,0.6-1.3,0.8-2c0.2-0.5-0.6-0.7-0.8-0.2l-0.1,0.2c0.1-0.3,0.1-0.5,0.2-0.8
	c0-0.1,0-0.1,0-0.2c0-0.1,0-0.1-0.1-0.1c0,0-0.1-0.1-0.1-0.1c0,0-0.1-0.1-0.1-0.1c-0.1,0-0.1,0-0.2,0c-0.1,0-0.1,0-0.1,0.1
	c0,0-0.1,0.1-0.1,0.1c0,0-0.1,0.1-0.1,0.1c-0.2,0.7-0.4,1.3-0.6,2c0.1-0.6,0.2-1.1,0.3-1.7c0.1-0.5-0.7-0.5-0.8,0
	c-0.1,0.7-0.2,1.3-0.4,2c0-0.2,0-0.5-0.1-0.7c0-0.1,0-0.1-0.1-0.2c0,0-0.1-0.1-0.1-0.1c0-0.1,0-0.2-0.1-0.3c0-0.1-0.1-0.2-0.2-0.2
	c-0.1,0-0.2-0.1-0.3-0.1c-0.1,0-0.2,0.1-0.2,0.1c-0.1,0.1-0.1,0.2-0.1,0.3l-0.1,2.9c-0.1,0.3-0.3,0.6-0.6,0.8
	c0.4,0.3,0.7,0.5,1.1,0.8c0.3,0.3,0.6,0.5,0.9,0.8c0.3-0.3,0.5-0.6,0.7-1C77,46,77,46,77,46c0.7-1,1.4-2.1,2.2-3.1
	C79.5,42.6,78.8,42.2,78.5,42.6L78.5,42.6z"/>
<path class="st15" d="M67.3,40.8c0,0,2.8,0.7,3.9,2.5c0.7,1.2,1.3,2.5,1.9,3.8l2-3.2c0,0,2.5,0.8,3.5,2c0,0-2.9,6.4-5.5,7
	c-2.6,0.6-5.3-3.8-5.3-3.8S67.2,51,67.3,49"/>
<path class="st19" d="M69.1,47.7c-0.8-0.7-1.4-1.5-1.8-2.5C67,44,67.4,43,67.8,42c0.4-1,0.7-2.2,0.7-3.3c0-1.1-0.1-2.2-0.2-3.3
	c0,0,0-0.1,0-0.1c-0.4-1.2-1.1-2.3-2.6-2.4c-3.9-0.3-4.1,4-4.1,5.7c0,1.7,0.2,2.9-1.1,3.7c-1.3,0.7-2.2,2.6-1,4.2
	c1.2,1.5,0.1,1-0.7,2.4c-0.8,1.4-0.6,3.1,1.1,3.7c1.7,0.6,9.5-0.5,10.2-1.3c0.3-0.3,0.4-0.7,0.4-1.1C70.4,49.1,69.9,48.3,69.1,47.7z
	"/>
<path class="st9" d="M72.9,12.3c0.7,0.9,1,2.1,1.1,3.2c0.1,0.5-0.1,1.1-0.4,1.5c-0.1,0.1-0.3,0.2-0.5,0.3c-0.2,0-0.4,0-0.6-0.1
	c-0.2-0.1-0.4-0.2-0.6-0.4c-0.1-0.1-0.3-0.3-0.4-0.5l-0.1-0.2c0,0.1-0.1,0.1-0.1,0.1c-0.1,0.1-0.2,0.1-0.3,0.1c-0.2,0-0.4,0-0.6-0.1
	c-0.5-0.2-0.9-0.5-1.1-1c-0.3-0.5-0.5-1-0.5-1.6c-0.1-0.5,0.1-0.9,0.4-1.3c0.1-0.1,0.3-0.2,0.5-0.2c0.2,0,0.4,0,0.5,0.1
	c0.2,0.1,0.3,0.2,0.5,0.3c0.1,0.1,0.2,0.2,0.3,0.3l0.1,0.1v-0.4L72,13l0.1,2.4c0,0.2,0.1,0.3,0.2,0.5c0.1,0.1,0.2,0.2,0.3,0.3
	c0.4,0.2,0.6-0.2,0.6-1.1c0-0.9-0.3-1.7-0.8-2.4c-0.4-0.7-1.1-1.3-1.9-1.6C70.2,11,69.9,11,69.6,11c-0.3,0-0.6,0.2-0.8,0.4
	c-0.3,0.3-0.4,0.6-0.6,0.9C68,12.6,68,13,68,13.3c0,0.9,0.3,1.8,0.8,2.5c0.4,0.7,1,1.3,1.8,1.7c0.3,0.1,0.6,0.2,0.8,0.2
	c0.2,0,0.4,0,0.5-0.1l0.2-0.1l0.5,0.9l-0.1,0.1c-0.1,0-0.2,0.1-0.2,0.1c-0.1,0.1-0.3,0.1-0.4,0.1c-0.2,0-0.4,0-0.6,0
	c-0.2,0-0.5-0.1-0.7-0.2c-0.6-0.3-1.2-0.7-1.7-1.2c-0.5-0.6-1-1.3-1.3-2c-0.3-0.7-0.5-1.5-0.5-2.3c0-0.7,0.1-1.3,0.4-1.9
	c0.2-0.5,0.7-0.9,1.2-1.1c0.5-0.2,1.1-0.1,1.7,0.1C71.5,10.6,72.3,11.3,72.9,12.3L72.9,12.3z M71,15.3c0.1-0.2,0.2-0.4,0.2-0.6
	c0-0.3-0.1-0.5-0.2-0.8c-0.1-0.2-0.3-0.4-0.5-0.5c-0.1,0-0.2-0.1-0.3,0c-0.1,0-0.2,0.1-0.2,0.1c-0.1,0.1-0.1,0.2-0.2,0.3
	c0,0.1,0,0.2,0,0.3c0,0.3,0.1,0.5,0.2,0.8c0.1,0.2,0.3,0.4,0.5,0.5C70.7,15.4,70.9,15.4,71,15.3L71,15.3z M122.7,57.9
	c0.7,0.9,1,2.1,1.1,3.2c0.1,0.5-0.1,1.1-0.4,1.5c-0.1,0.1-0.3,0.2-0.5,0.3c-0.2,0-0.4,0-0.6-0.1c-0.2-0.1-0.4-0.2-0.6-0.4
	c-0.1-0.1-0.3-0.3-0.4-0.5l-0.1-0.2c0,0.1-0.1,0.1-0.1,0.1c-0.1,0.1-0.2,0.1-0.3,0.1c-0.2,0-0.4,0-0.6-0.1c-0.5-0.2-0.9-0.6-1.1-1
	c-0.3-0.5-0.5-1-0.5-1.6c-0.1-0.5,0.1-0.9,0.4-1.3c0.1-0.1,0.3-0.2,0.5-0.2c0.2,0,0.4,0,0.5,0.1c0.2,0.1,0.3,0.2,0.5,0.3
	c0.1,0.1,0.2,0.2,0.3,0.3l0.1,0.1v-0.4l0.8,0.3l0.1,2.4c0,0.2,0.1,0.3,0.2,0.5c0.1,0.1,0.2,0.2,0.3,0.3c0.4,0.2,0.6-0.2,0.6-1.1
	c0-0.9-0.3-1.7-0.8-2.4c-0.4-0.7-1.1-1.3-1.9-1.6c-0.3-0.1-0.6-0.2-0.9-0.2c-0.3,0-0.6,0.2-0.8,0.4c-0.3,0.3-0.4,0.6-0.6,0.9
	c-0.1,0.3-0.2,0.7-0.1,1.1c0,0.9,0.3,1.8,0.8,2.5c0.4,0.7,1.1,1.3,1.8,1.6c0.3,0.1,0.6,0.2,0.8,0.2c0.2,0,0.4,0,0.5-0.1l0.2-0.1
	l0.5,0.9l-0.1,0.1c-0.1,0-0.2,0.1-0.2,0.1c-0.1,0.1-0.3,0.1-0.4,0.1c-0.2,0-0.4,0-0.6,0c-0.2,0-0.5-0.1-0.7-0.2
	c-0.6-0.3-1.2-0.7-1.7-1.2c-0.5-0.6-1-1.3-1.3-2c-0.3-0.7-0.5-1.5-0.5-2.3c0-0.7,0.1-1.3,0.4-1.9c0.2-0.5,0.7-0.9,1.2-1.1
	c0.5-0.2,1.1-0.1,1.7,0.1C121.3,56.2,122.1,56.9,122.7,57.9L122.7,57.9z M120.8,60.9c0.1-0.2,0.2-0.4,0.2-0.6c0-0.3-0.1-0.5-0.2-0.8
	c-0.1-0.2-0.3-0.4-0.5-0.5c-0.1,0-0.2-0.1-0.3,0c-0.1,0-0.2,0.1-0.2,0.1c-0.1,0.1-0.1,0.2-0.2,0.3c0,0.1,0,0.2,0,0.3
	c0,0.3,0.1,0.5,0.2,0.8c0.1,0.2,0.3,0.4,0.5,0.5c0.1,0,0.2,0.1,0.3,0C120.7,61,120.7,61,120.8,60.9"/>
<linearGradient id="SVGID_5_" gradientUnits="userSpaceOnUse" x1="30.2589" y1="128.5316" x2="20.5004" y2="117.8331" gradientTransform="matrix(1 0 0 -1 0 198)">
	<stop  offset="0" style="stop-color:#78B46A"/>
	<stop  offset="3.000000e-02" style="stop-color:#7F3500"/>
	<stop  offset="1" style="stop-color:#FFFFFF"/>
</linearGradient>
<path class="st20" d="M38.7,75.9l-14.3-8.1l-14.3,8.1c0,0,7.9,5,15,9.1C29.7,81.8,33.7,78.2,38.7,75.9L38.7,75.9z"/>
<g>
	<path d="M12.9,53.1v17.6l13.7,7.9l15.5-9.2V51.8"/>
</g>
<path class="st21" d="M12.9,53.1v17.6l13.7,7.9l15.5-9.2V51.8"/>
<path class="st22" d="M26.7,60.9v17.6l15.5-9.2V51.8L26.7,60.9z"/>
<path class="st9" d="M12.9,53.1l16-9.1l13.3,7.8l-15.5,9.2L12.9,53.1z"/>
<path class="st17" d="M27,48c1.6-0.1,3.2,0.2,4.7,1c0.8,0.5,1.3,1,1.3,1.5c0.1,0.5-0.2,1-0.8,1.4c-0.3,0.2-0.6,0.3-1,0.4
	c-0.3,0.1-0.6,0.1-0.9,0.1l-0.3,0c0,0.1,0,0.1,0.1,0.2c0,0.2-0.1,0.4-0.2,0.5c-0.2,0.3-0.4,0.5-0.7,0.7c-0.7,0.4-1.4,0.6-2.2,0.6
	c-0.8,0-1.6-0.2-2.3-0.6c-0.7-0.4-1-0.8-1-1.4c0-0.3,0.1-0.5,0.2-0.8c0.1-0.2,0.4-0.4,0.6-0.5c0.2-0.1,0.5-0.3,0.8-0.3
	c0.2-0.1,0.4-0.1,0.7-0.1h0.2l-0.4-0.3l1.2-0.7l2.7,1.6c0.2,0.1,0.4,0.2,0.7,0.2c0.2,0,0.5-0.1,0.7-0.2c0.6-0.4,0.4-0.8-0.6-1.4
	c-1.1-0.6-2.3-0.8-3.5-0.8c-1.3,0-2.5,0.4-3.6,1c-1,0.6-1.5,1.4-1.5,2.2c0,0.8,0.5,1.6,1.5,2.2c1.1,0.6,2.4,0.9,3.7,0.9
	c1.3,0,2.5-0.3,3.6-1c0.4-0.2,0.7-0.5,1-0.8c0.2-0.2,0.3-0.4,0.4-0.7l0.1-0.3l1.6,0.1c0,0,0,0.1,0,0.1c0,0.1-0.1,0.3-0.1,0.4
	c-0.1,0.2-0.2,0.4-0.3,0.6c-0.2,0.2-0.3,0.5-0.6,0.7c-0.3,0.3-0.6,0.5-0.9,0.7c-0.9,0.6-2,0.9-3.1,1.1c-1.2,0.2-2.4,0.2-3.6,0.1
	c-1.1-0.1-2.1-0.5-3.1-1c-0.8-0.4-1.4-1-1.7-1.8c-0.1-0.3-0.2-0.7-0.2-1.1c0-0.4,0.1-0.7,0.2-1.1c0.4-0.8,1-1.5,1.7-1.9
	C23.7,48.5,25.3,48.1,27,48L27,48z M28.6,52.4c0-0.1-0.1-0.3-0.2-0.4c-0.1-0.1-0.2-0.2-0.3-0.3c-0.3-0.2-0.7-0.3-1.1-0.3
	c-0.4,0-0.7,0.1-1,0.3c-0.3,0.1-0.4,0.4-0.4,0.7c0,0.3,0.2,0.5,0.5,0.7c0.3,0.2,0.7,0.3,1.1,0.3c0.4,0,0.7-0.1,1.1-0.3
	C28.4,52.9,28.6,52.6,28.6,52.4"/>
</svg>
